<?xml version="1.0" standalone="no"?><!DOCTYPE svg PUBLIC "-//W3C//DTD SVG 1.1//EN" "http://www.w3.org/Graphics/SVG/1.1/DTD/svg11.dtd"><svg t="1522032367228" class="icon" style="" viewBox="0 0 1024 1024" version="1.1" xmlns="http://www.w3.org/2000/svg" p-id="1387" xmlns:xlink="http://www.w3.org/1999/xlink" width="200" height="200"><defs><style type="text/css"></style></defs><path d="M777.285 643.999l-3.215-4.979c-33.363-51.667-50.927-111.272-50.791-172.374l0.005-2.331a19.858 19.858 0 0 0 0.068-2.838l-0.017-5.436a24.863 24.863 0 0 0-0.194-2.966c-2.398-52.544-24.882-101.692-63.62-138.823-39.814-38.162-92.205-59.179-147.521-59.179-55.317 0-107.708 21.016-147.521 59.177-38.741 37.132-61.224 86.278-63.62 138.827a24.676 24.676 0 0 0-0.194 2.968l-0.018 5.678v0.063l-0.001 0.631c0 0.563 0.023 1.119 0.069 1.67l0.006 2.56c0.134 61.101-17.429 120.708-50.792 172.375L246.715 644c-16.661 25.802-17.85 57.285-3.181 84.218 14.808 27.189 43.475 44.08 74.814 44.08h387.303c31.339 0 60.007-16.891 74.814-44.079 14.67-26.935 13.48-58.418-3.18-84.22z m-31.947 65.087c-7.915 14.534-22.752 23.211-39.687 23.211H318.348c-16.935 0-31.771-8.677-39.687-23.212-7.552-13.866-6.933-30.086 1.657-43.388l3.214-4.978c37.564-58.174 57.34-125.313 57.188-194.161-0.009-3.836-0.016-6.491-0.023-8.253 2.25-90.033 79.038-163.232 171.302-163.232 92.265 0 169.053 73.202 171.303 163.237-0.008 1.762-0.015 4.416-0.023 8.249-0.152 68.846 19.623 135.986 57.188 194.161l3.215 4.979c8.589 13.301 9.209 29.521 1.656 43.387zM645.849 808.985H378.151c-11.046 0-20 8.954-20 20s8.954 20 20 20h267.697c11.046 0 20-8.954 20-20s-8.953-20-19.999-20zM512 241.583c11.046 0 20-8.954 20-20v-26.568c0-11.046-8.954-20-20-20s-20 8.954-20 20v26.568c0 11.045 8.954 20 20 20z" p-id="1388"></path></svg>